<svg width="59" height="60" viewBox="0 0 59 60" fill="none" xmlns="http://www.w3.org/2000/svg">
<path d="M29.4046 59.4667C29.3262 59.4167 29.2905 59.2023 29.2549 58.6305C29.2049 57.7799 29.0837 56.8007 28.9625 56.3575C28.9197 56.2003 28.8769 55.8929 28.8555 55.6785C28.8341 55.4641 28.7913 55.2497 28.7628 55.2139C28.7271 55.171 28.6629 54.9137 28.6202 54.6421C28.5702 54.3634 28.5061 54.1132 28.4704 54.0775C28.4347 54.0346 28.4062 53.9202 28.4062 53.813C28.4062 53.7058 28.3777 53.5986 28.342 53.5771C28.3135 53.5557 28.2422 53.3341 28.1923 53.0911C28.1495 52.8409 28.0853 52.6122 28.0568 52.5693C28.0283 52.5336 27.9355 52.2548 27.8428 51.9618C27.6717 51.39 27.4506 50.7967 27.1154 50.0034C27.0013 49.7317 26.9086 49.4816 26.9086 49.4459C26.9086 49.3815 25.625 46.7512 25.4823 46.5296C25.4467 46.4725 25.1971 46.0579 24.9332 45.6076C24.6694 45.1573 24.3984 44.7213 24.3413 44.6284C23.4713 43.3061 22.587 42.1339 21.5387 40.9188C20.7043 39.9539 18.4151 37.731 17.7804 37.2736C17.6734 37.1949 17.1386 36.7947 16.5966 36.3801C15.3629 35.4438 15.2915 35.3938 13.7797 34.486C12.5317 33.7284 11.0555 32.985 9.75756 32.449C9.67912 32.4204 9.50083 32.3489 9.36533 32.2917C9.12287 32.1916 8.17439 31.8486 7.65379 31.6699C7.04049 31.4626 6.24177 31.2267 5.37174 30.998C5.1578 30.9408 4.83688 30.8551 4.6586 30.805C4.48031 30.7621 4.1594 30.6978 3.94546 30.6621C3.73151 30.6335 3.37494 30.5763 3.161 30.5334C2.36941 30.3762 1.32823 30.2332 0.74345 30.1975C-0.247817 30.1403 -0.247817 29.8973 0.74345 29.8401C1.3211 29.8044 2.35515 29.6614 3.161 29.5042C3.37494 29.4613 3.71725 29.4041 3.9098 29.3684C5.37174 29.1253 8.30275 28.2319 9.7433 27.5958C9.90732 27.5171 10.3138 27.3385 10.649 27.1955C11.2837 26.9168 11.3479 26.8882 12.439 26.3164C13.473 25.7731 14.2931 25.2728 15.3415 24.5581C15.8621 24.2007 16.3541 23.8719 16.4326 23.829C16.511 23.7861 16.6608 23.6646 16.7677 23.5717C16.8747 23.4716 17.1671 23.2429 17.4238 23.0499C17.6806 22.8641 17.923 22.6711 17.9587 22.6282C18.0015 22.5853 18.2725 22.3423 18.5649 22.0922C19.2851 21.4775 21.1821 19.5476 21.8524 18.7542C22.6226 17.8394 23.7851 16.3169 23.892 16.0811C23.9134 16.0239 24.0275 15.8595 24.1416 15.7237C24.2486 15.5879 24.3413 15.4521 24.3413 15.4235C24.3413 15.3949 24.4839 15.1662 24.6622 14.9089C24.8405 14.6444 24.9831 14.4085 24.9831 14.3656C24.9831 14.3299 25.0758 14.1584 25.19 13.9868C25.3112 13.8153 25.518 13.4436 25.6606 13.1649C25.8104 12.879 25.953 12.6288 25.9887 12.6073C26.0243 12.5859 26.0529 12.5216 26.0529 12.4572C26.0529 12.3929 26.0956 12.2857 26.1456 12.2285C26.2026 12.1642 26.3167 11.9355 26.4023 11.721C26.495 11.5066 26.6448 11.1492 26.7446 10.9348C26.9799 10.4059 27.0798 10.1772 27.2295 9.79121C27.2937 9.61252 27.3936 9.37665 27.4506 9.26944C27.5077 9.15508 27.5504 9.01213 27.5504 8.94065C27.5504 8.87632 27.579 8.79055 27.6146 8.74767C27.6574 8.71193 27.7145 8.55468 27.7573 8.39744C27.7929 8.24019 27.9142 7.85422 28.014 7.53973C28.3634 6.44615 28.4062 6.3032 28.4062 6.1674C28.4062 6.09592 28.4347 6.003 28.4704 5.96012C28.5132 5.92438 28.5774 5.67422 28.6202 5.40261C28.6629 5.131 28.7271 4.85225 28.7628 4.78077C28.8056 4.7093 28.8341 4.56635 28.8341 4.45198C28.8341 4.34477 28.8769 4.04457 28.9339 3.78726C29.1051 3.01533 29.1907 2.3649 29.262 1.47145C29.2976 0.999716 29.3618 0.585158 29.4046 0.542273C29.5544 0.392174 29.6257 0.628043 29.6899 1.47145C29.7612 2.40064 29.8539 3.07251 30.0179 3.78726C30.075 4.04457 30.1178 4.36622 30.1178 4.50917C30.1178 4.64497 30.1463 4.78792 30.1819 4.83081C30.2247 4.86654 30.2889 5.11671 30.3317 5.39546C30.3745 5.66707 30.4387 5.92438 30.4672 5.96727C30.5029 6.003 30.5456 6.13881 30.567 6.25317C30.6241 6.54622 30.7596 7.06084 30.8666 7.36104C30.9165 7.49684 30.9949 7.72557 31.0377 7.86137C31.0876 7.99717 31.1589 8.2116 31.1875 8.32596C31.2873 8.66904 31.7366 9.89127 31.8935 10.2415C31.9791 10.4202 32.0432 10.5917 32.0432 10.6132C32.0432 10.7561 33.4481 13.4865 33.9259 14.2799C34.2468 14.8088 34.5464 15.3234 34.6034 15.4235C34.6533 15.5307 34.7674 15.6951 34.853 15.7952C34.9386 15.8952 35.1597 16.2026 35.3451 16.4742C35.5305 16.7529 35.7872 17.1103 35.9156 17.2747C36.5289 18.0824 36.7856 18.4112 36.857 18.4755C36.8926 18.5184 37.1065 18.7542 37.3205 19.0116C37.8411 19.6262 39.8664 21.6633 40.494 22.1994C41.0003 22.6354 42.177 23.5717 42.5621 23.8433C43.6389 24.6009 44.7086 25.2943 45.4503 25.7231C46.4986 26.3307 48.3029 27.2241 49.1943 27.5886C49.2727 27.6172 49.451 27.6958 49.6008 27.7602C49.7434 27.8245 49.8932 27.8745 49.936 27.8745C49.9788 27.8745 50.1285 27.9389 50.2783 28.0175C50.428 28.089 50.7276 28.2033 50.9415 28.2605C51.1554 28.3177 51.4764 28.4249 51.6546 28.4892C51.8329 28.5535 52.2038 28.6679 52.4748 28.7465C52.7529 28.818 53.0881 28.9109 53.2236 28.9538C53.3591 28.9967 53.6942 29.0753 53.9724 29.1325C54.2433 29.1897 54.5643 29.2683 54.6855 29.304C55.256 29.4756 56.8035 29.7114 57.9659 29.8044C58.7504 29.8615 59 29.9116 59 30.0188C59 30.1189 58.7647 30.176 58.2155 30.2046C57.4667 30.2475 56.1118 30.4405 55.6768 30.562C55.4771 30.6192 55.1847 30.6621 55.0278 30.6621C54.8709 30.6621 54.6427 30.7121 54.5357 30.7693C54.4216 30.8265 54.2433 30.8765 54.1435 30.8765C54.0365 30.8765 53.7798 30.9265 53.573 30.9909C53.3591 31.048 53.0096 31.1481 52.7957 31.2124C52.2679 31.3554 50.4423 31.9415 50.264 32.0273C50.1856 32.063 49.993 32.1345 49.8361 32.1917C49.1729 32.4347 47.1618 33.3424 46.734 33.5926C46.6769 33.6283 46.356 33.807 46.0208 33.9928C45.1151 34.4932 43.8671 35.2437 43.6675 35.4152C43.5676 35.4938 43.3323 35.6725 43.1326 35.8083C42.6833 36.1085 41.0859 37.3093 40.9932 37.4165C40.9575 37.4594 40.715 37.6738 40.4583 37.8811C39.7951 38.4386 37.8126 40.4399 37.1351 41.2405C36.586 41.8909 35.0384 43.9136 35.0384 43.9851C35.0384 44.0066 34.8673 44.271 34.6605 44.5784C34.4465 44.8857 34.1185 45.4075 33.9259 45.7434C33.7334 46.0793 33.5408 46.4153 33.4909 46.4939C33.2841 46.8441 32.0432 49.3744 32.0432 49.453C32.0432 49.4959 32.0005 49.6102 31.9434 49.696C31.8863 49.7818 31.7722 50.0462 31.6938 50.2821C31.6154 50.518 31.4799 50.8897 31.4014 51.1041C31.3158 51.3185 31.2231 51.5973 31.1875 51.7116C31.1589 51.8331 31.052 52.1548 30.945 52.4335C30.8452 52.7123 30.7596 52.9982 30.7596 53.0554C30.7596 53.1197 30.674 53.4199 30.5742 53.7272C30.4743 54.0274 30.3602 54.4706 30.3246 54.7065C30.2818 54.9495 30.2247 55.171 30.1819 55.2068C30.1463 55.2497 30.1178 55.3855 30.1178 55.5141C30.1178 55.6499 30.075 55.9573 30.0179 56.2003C29.8682 56.8579 29.7469 57.7656 29.6899 58.6305C29.64 59.4238 29.59 59.5811 29.4046 59.4667Z" fill="white"/>
</svg>
